<?xml version="1.0" encoding="utf-8"?>
<!-- Generator: Adobe Illustrator 17.0.0, SVG Export Plug-In . SVG Version: 6.00 Build 0)  -->
<!DOCTYPE svg PUBLIC "-//W3C//DTD SVG 1.1//EN" "http://www.w3.org/Graphics/SVG/1.1/DTD/svg11.dtd">
<svg version="1.1" id="Calque_1" xmlns="http://www.w3.org/2000/svg" xmlns:xlink="http://www.w3.org/1999/xlink" x="0px" y="0px"
	 width="200.959px" height="253.442px" viewBox="0 0 200.959 253.442" enable-background="new 0 0 200.959 253.442"
	 xml:space="preserve">
<g>
	<rect x="22.646" y="147.792" fill="#06274A" width="155.927" height="105.65"/>
	<path fill="#06274A" d="M193.315,127.677c5.642-37.314-24.431-55.816-35.77-62.768c-0.469-0.3-0.982-0.5-1.472-0.721
		c-3.175-2.113-6.742-3.677-10.378-4.567l-7.09,7.142l-6.883-7.221c-0.031,0.008-0.051,0.008-0.069,0.008
		c-3.708,0.892-7.344,2.485-10.568,4.639c-0.862,0.372-1.713,0.821-2.485,1.423c-23.52,18.381-33.988,8.524-35.232,7.652
		c-4.116-2.916-9.514-2.564-13.26,0.441L52.446,57.078l3.536-4.229c1.472-1.772,2.182-3.926,2.172-6.07l-11.027-9.206
		c-2.116,0.372-4.108,1.454-5.59,3.226L31.3,53.09c-1.413,1.672-2.113,3.695-2.185,5.719l11.37,9.488
		c1.982-0.431,3.847-1.485,5.239-3.167l3.706-4.436l17.551,16.617l0.31-0.21c-2.605,4.849-1.292,10.97,3.316,14.235
		c1.231,0.862,24.451,13.353,38.835,2.634v33.709H51.964c1.885,0,3.405-1.523,3.405-3.405c0-1.885-1.521-3.405-3.405-3.405h-0.269
		c0-3.346-2.716-6.062-6.049-6.062H20.651c-3.344,0-6.06,2.716-6.06,6.062h-0.269c-1.885,0-3.405,1.521-3.405,3.405
		c0,1.882,1.521,3.405,3.405,3.405H2v12.371h198.959v-12.371H193.315z M138.532,67.825h0.141l6.862,45.918l-6.862,9.406h-0.141
		l-6.862-9.406L138.532,67.825z M167.764,103.416c3.685,6.431,5.208,14.294,3.023,24.261h-3.023V103.416z M167.764,103.416"/>
	<path fill="#06274A" d="M167.092,29.49c0,15.727-12.753,28.477-28.488,28.477c-15.727,0-28.49-12.75-28.49-28.477
		c0-15.738,12.763-28.49,28.49-28.49C154.339,1,167.092,13.753,167.092,29.49L167.092,29.49z M167.092,29.49"/>
</g>
</svg>
