<?xml version="1.0" encoding="utf-8"?>
<!-- Generator: Adobe Illustrator 17.0.0, SVG Export Plug-In . SVG Version: 6.00 Build 0)  -->
<!DOCTYPE svg PUBLIC "-//W3C//DTD SVG 1.1//EN" "http://www.w3.org/Graphics/SVG/1.1/DTD/svg11.dtd">
<svg version="1.1" id="Calque_1" xmlns="http://www.w3.org/2000/svg" xmlns:xlink="http://www.w3.org/1999/xlink" x="0px" y="0px"
	 width="1107px" height="802px" viewBox="0 0 1107 802" enable-background="new 0 0 1107 802" xml:space="preserve">
	 <defs>
		<style type="text/css"><![CDATA[
			text {
				font:arial !important;
			}
		]]></style>
	</defs>
<path fill="none" stroke="#3576BB" stroke-linecap="round" stroke-linejoin="round" stroke-miterlimit="10" d="M16.083,11.5h518.219
	c2.038-0.014,3.829,1.777,4,4v26c-0.171,2.18-1.962,3.971-4,4H16.083c-2.872-0.029-4-1.496-4-4v-26
	C12.083,13.011,13.211,11.486,16.083,11.5z"/>
<text transform="matrix(1 0 0 1 143.3169 33.9785)" fill="#3576BB" font-family="'Helvetica-Bold'" font-size="14">Principes de procédure (art. 52-58 CPC)</text>
<text transform="matrix(1 0 0 1 550.1997 627.6924)" font-family="'ArialMT'" font-size="10">•</text>
<path opacity="0.75" fill="#3576BB" d="M546.545,55.699h129.051c2.209,0,4,1.791,4,4v50.004c0,2.209-1.791,4-4,4H546.545
	c-2.209,0-4-1.791-4-4V59.699C542.545,57.49,544.335,55.699,546.545,55.699z"/>
<text transform="matrix(1 0 0 1 570.6167 89.7012)" font-family="'Helvetica-Bold'" font-size="13">Publicité (54)</text>
<path opacity="0.75" fill="#3576BB" d="M171.506,55.699h214.906c2.21,0,4,1.791,4,4v50.004c0,2.209-1.79,4-4,4H171.506
	c-2.209,0-4-1.791-4-4V59.699C167.506,57.49,169.296,55.699,171.506,55.699z"/>
<text transform="matrix(1 0 0 1 236.0347 89.7012)" font-family="'Helvetica-Bold'" font-size="13">Bonne foi (52)</text>
<path opacity="0.75" fill="#3576BB" d="M398.857,55.699h135.647c2.209,0,4,1.791,4,4v50.004c0,2.209-1.791,4-4,4H398.857
	c-2.209,0-4-1.791-4-4V59.699C394.857,57.49,396.648,55.699,398.857,55.699z"/>
<text transform="matrix(1 0 0 1 404.2954 81.7012)" font-family="'Helvetica-Bold'" font-size="13">Droit d&apos;être entendu </text>
<text transform="matrix(1 0 0 1 454.2295 97.7012)" font-family="'Helvetica-Bold'" font-size="13">(53)</text>
<path opacity="0.5" fill="#3576BB" d="M398.733,248.114h136.023c2.209,0,4,1.791,4,4v80.218c0,2.209-1.791,4-4,4H398.733
	c-2.21,0-4-1.791-4-4v-80.218C394.733,249.905,396.523,248.114,398.733,248.114z"/>
<text transform="matrix(1 0 0 1 413.3857 261.1143)" font-family="'ArialMT'" font-size="12">Droit de consulter le </text>
<text transform="matrix(1 0 0 1 405.2383 275.1143)" font-family="'ArialMT'" font-size="12">dossier (53 II), et d&apos;être </text>
<text transform="matrix(1 0 0 1 402.5752 289.1143)" font-family="'ArialMT'" font-size="12">informé et de s&apos;exprimer </text>
<text transform="matrix(1 0 0 1 408.3818 303.1143)" font-family="'ArialMT'" font-size="12">sur les éléments de la </text>
<text transform="matrix(1 0 0 1 409.3779 317.1143)" font-family="'ArialMT'" font-size="12">procédure (53 I ; 29 II </text>
<text transform="matrix(1 0 0 1 454.0791 331.1143)" font-family="'ArialMT'" font-size="12">Cst.)</text>
<path opacity="0.5" fill="#3576BB" d="M546.509,117.791h129.09c2.209,0,4,1.791,4,4v50.004c0,2.209-1.791,4-4,4h-129.09
	c-2.209,0-4-1.791-4-4v-50.004C542.509,119.581,544.3,117.791,546.509,117.791z"/>
<text transform="matrix(1 0 0 1 556.3652 130.79)" font-family="'ArialMT'" font-size="12">Ecritures des parties </text>
<text transform="matrix(1 0 0 1 573.6885 144.79)" font-family="'ArialMT'" font-size="12">non publiques</text>
<path opacity="0.25" fill="#3576BB" d="M15.785,248.114h142.448c2.209,0,4,1.791,4,4v80.216c0,2.209-1.791,4-4,4H15.785
	c-2.209,0-4-1.791-4-4v-80.216C11.785,249.905,13.576,248.114,15.785,248.114z"/>
<text transform="matrix(1 0 0 1 16.4185 262.1152)" font-family="'Arial-BoldMT'" font-size="13">Echange d&apos;écritures</text>
<path opacity="0.5" fill="#3576BB" d="M398.733,117.79h135.986c2.209,0,4,1.791,4,4v50.005c0,2.209-1.791,4-4,4H398.733
	c-2.209,0-4-1.791-4-4V121.79C394.733,119.581,396.524,117.79,398.733,117.79z"/>
<text transform="matrix(1 0 0 1 407.3154 130.79)" font-family="'ArialMT'" font-size="12">Droit d&apos;être assigné en </text>
<text transform="matrix(1 0 0 1 407.4619 144.79)" font-family="'ArialMT'" font-size="12">temps utile (133 ; 134)</text>
<path opacity="0.5" fill="#3576BB" d="M546.546,340.961h129.088c2.209,0,4,1.791,4,4V536.05c0,2.209-1.791,4-4,4H546.546
	c-2.209,0-4-1.791-4-4V344.961C542.546,342.752,544.337,340.961,546.546,340.961z"/>
<text transform="matrix(1 0 0 1 547.5469 353.9609)" font-family="'ArialMT'" font-size="12">• Principe : publicité </text>
<text transform="matrix(1 0 0 1 552.5469 367.9609)" font-family="'ArialMT'" font-size="12">des débats (54 I)</text>
<text transform="matrix(1 0 0 1 547.5469 395.9609)" font-family="'ArialMT'" font-size="12">• Intérêt public ou privé </text>
<text transform="matrix(1 0 0 1 552.5469 409.9609)" font-family="'ArialMT'" font-size="12">prépondérant l&apos;exige : </text>
<text transform="matrix(1 0 0 1 552.5469 423.9609)" font-family="'ArialMT'" font-size="12">huis clos (54 III)</text>
<text transform="matrix(1 0 0 1 547.5469 451.9609)" font-family="'ArialMT'" font-size="12">• Procédures de droit </text>
<text transform="matrix(1 0 0 1 552.5469 465.9609)" font-family="'ArialMT'" font-size="12">de la famille : huis clos </text>
<text transform="matrix(1 0 0 1 552.5469 479.9609)" font-family="'ArialMT'" font-size="12">(54 IV)</text>
<path opacity="0.5" fill="#3576BB" d="M546.377,544.02h129.256c2.209,0,4,1.791,4,4v80.216c0,2.21-1.791,4-4,4H546.377
	c-2.209,0-4-1.79-4-4V548.02C542.377,545.81,544.168,544.02,546.377,544.02z"/>
<text transform="matrix(1 0 0 1 545.8481 557.0205)" font-family="'ArialMT'" font-size="12">• Instances cantonales : </text>
<text transform="matrix(1 0 0 1 550.8481 571.0205)" font-family="'ArialMT'" font-size="12">droit cantonal </text>
<text transform="matrix(1 0 0 1 550.8481 585.0205)" font-family="'ArialMT'" font-size="12">détermine si publicité </text>
<text transform="matrix(1 0 0 1 550.8481 599.0205)" font-family="'ArialMT'" font-size="12">(54 II)</text>
<text transform="matrix(1 0 0 1 545.8481 613.0205)"><tspan x="0" y="0" font-family="'ArialMT'" font-size="12">•</tspan><tspan x="4.201" y="0" font-family="'ArialMT'" font-size="12"> </tspan><tspan x="7.319" y="0" font-family="'ArialMT'" font-size="12">TF : délibérations </tspan></text>
<text transform="matrix(1 0 0 1 550.8481 627.0205)"><tspan x="0" y="0" font-family="'ArialMT'" font-size="12">publiques (58-59 </tspan><tspan x="92.73" y="0" font-family="'ArialMT'" font-size="12">L</tspan><tspan x="98.516" y="0" font-family="'ArialMT'" font-size="12">TF)</tspan></text>
<path opacity="0.5" fill="#3576BB" d="M546.351,636.202h129.284c2.209,0,4,1.791,4,4v121.917c0,2.209-1.791,4-4,4H546.351
	c-2.209,0-4-1.791-4-4V640.202C542.351,637.993,544.142,636.202,546.351,636.202z"/>
<text transform="matrix(1 0 0 1 565.8892 649.2021)" font-family="'ArialMT'" font-size="12">Accessibilité des </text>
<text transform="matrix(1 0 0 1 557.4849 663.2021)"><tspan x="0" y="0" font-family="'ArialMT'" font-size="12">décisions : au gre</tspan><tspan x="94.055" y="0" font-family="'ArialMT'" font-size="12">f</tspan><tspan x="97.173" y="0" font-family="'ArialMT'" font-size="12">fe, </tspan></text>
<text transform="matrix(1 0 0 1 554.3735 677.2021)" font-family="'ArialMT'" font-size="12">publication, possibilité </text>
<text transform="matrix(1 0 0 1 552.2231 691.2021)" font-family="'ArialMT'" font-size="12">d&apos;obtenir une copie sur </text>
<text transform="matrix(1 0 0 1 587.7222 705.2021)" font-family="'ArialMT'" font-size="12">demande</text>
<path opacity="0.5" fill="#3576BB" d="M398.775,179.882h135.982c2.209,0,4,1.791,4,4v56.145c0,2.209-1.791,4-4,4H398.775
	c-2.209,0-4-1.791-4-4v-56.145C394.775,181.672,396.566,179.882,398.775,179.882z"/>
<text transform="matrix(1 0 0 1 398.9028 192.8809)" font-family="'ArialMT'" font-size="12">Droit d&apos;être assisté et de </text>
<text transform="matrix(1 0 0 1 398.9028 206.8809)" font-family="'ArialMT'" font-size="12">se faire représenter </text>
<text transform="matrix(1 0 0 1 398.9028 220.8809)" font-family="'ArialMT'" font-size="12">(204)</text>
<path opacity="0.25" fill="#3576BB" d="M15.836,179.882H158.29c2.209,0,4,1.791,4,4v56.145c0,2.209-1.791,4-4,4H15.836
	c-2.209,0-4-1.791-4-4v-56.145C11.836,181.672,13.627,179.882,15.836,179.882z"/>
<text transform="matrix(1 0 0 1 16.8364 193.8809)" font-family="'Arial-BoldMT'" font-size="13">Conciliation</text>
<path opacity="0.25" fill="#3576BB" d="M15.785,340.961h142.423c2.209,0,4,1.791,4,4v80.22c0,2.209-1.791,4-4,4H15.785
	c-2.209,0-4-1.791-4-4v-80.22C11.785,342.752,13.576,340.961,15.785,340.961z"/>
<text transform="matrix(1 0 0 1 16.4165 354.9609)" font-family="'Arial-BoldMT'" font-size="13">Administration des </text>
<text transform="matrix(1 0 0 1 16.4165 369.9609)" font-family="'Arial-BoldMT'" font-size="13">preuves</text>
<path opacity="0.25" fill="#3576BB" d="M15.785,433.158h142.448c2.21,0,4,1.791,4,4v98.893c0,2.209-1.79,4-4,4H15.785
	c-2.209,0-4-1.791-4-4v-98.893C11.785,434.949,13.576,433.158,15.785,433.158z"/>
<text transform="matrix(1 0 0 1 16.4189 447.1592)" font-family="'Arial-BoldMT'" font-size="13">Débats principaux</text>
<path opacity="0.25" fill="#3576BB" d="M15.785,544.02h142.448c2.209,0,4,1.791,4,4v80.215c0,2.209-1.791,4-4,4H15.785
	c-2.21,0-4-1.791-4-4V548.02C11.785,545.81,13.576,544.02,15.785,544.02z"/>
<text transform="matrix(1 0 0 1 16.0024 558.0195)" font-family="'Arial-BoldMT'" font-size="13">Délibérations</text>
<path opacity="0.25" fill="#3576BB" d="M15.837,636.201h142.417c2.209,0,4,1.791,4,4v121.918c0,2.209-1.791,4-4,4H15.837
	c-2.209,0-4-1.791-4-4V640.201C11.837,637.992,13.628,636.201,15.837,636.201z"/>
<text transform="matrix(1 0 0 1 16.8369 650.2012)" font-family="'Arial-BoldMT'" font-size="13">Décision</text>
<path opacity="0.5" fill="#3576BB" d="M398.858,340.961h135.861c2.209,0,4,1.791,4,4v80.22c0,2.209-1.791,4-4,4H398.858
	c-2.209,0-4-1.791-4-4v-80.22C394.858,342.752,396.649,340.961,398.858,340.961z"/>
<text transform="matrix(1 0 0 1 407.8452 353.9609)" font-family="'ArialMT'" font-size="12">Droit de proposer des </text>
<text transform="matrix(1 0 0 1 402.8413 367.9609)" font-family="'ArialMT'" font-size="12">preuves et de participer </text>
<text transform="matrix(1 0 0 1 409.3687 381.9609)" font-family="'ArialMT'" font-size="12">à l&apos;administration des </text>
<text transform="matrix(1 0 0 1 406.8433 395.9609)" font-family="'ArialMT'" font-size="12">preuves (152 ; 155 III)</text>
<path opacity="0.5" fill="#3576BB" d="M398.775,433.158h135.943c2.209,0,4,1.791,4,4v191.077c0,2.21-1.791,4-4,4H398.775
	c-2.209,0-4-1.79-4-4V437.158C394.775,434.949,396.566,433.158,398.775,433.158z"/>
<text transform="matrix(1 0 0 1 400.6948 446.1592)" font-family="'ArialMT'" font-size="12">Droit d&apos;être assisté et de </text>
<text transform="matrix(1 0 0 1 400.8413 460.1592)" font-family="'ArialMT'" font-size="12">se faire représenter (68)</text>
<path opacity="0.5" fill="#3576BB" d="M398.775,636.203h135.943c2.209,0,4,1.791,4,4V762.12c0,2.209-1.791,4-4,4H398.775
	c-2.209,0-4-1.791-4-4V640.203C394.775,637.994,396.566,636.203,398.775,636.203z"/>
<text transform="matrix(1 0 0 1 408.4546 649.2031)" font-family="'ArialMT'" font-size="12">Droit de recevoir une </text>
<text transform="matrix(1 0 0 1 419.4585 663.2031)" font-family="'ArialMT'" font-size="12">décision motivée </text>
<text transform="matrix(1 0 0 1 438.1323 677.2031)" font-family="'ArialMT'" font-size="12">(238-239)</text>
<path opacity="0.25" fill="#3576BB" d="M15.837,117.791H158.29c2.209,0,4,1.791,4,4v50.004c0,2.209-1.791,4-4,4H15.837
	c-2.209,0-4-1.791-4-4v-50.004C11.837,119.582,13.628,117.791,15.837,117.791z"/>
<text transform="matrix(1 0 0 1 16.8374 131.79)" font-family="'Arial-BoldMT'" font-size="13">Requête</text>
<path opacity="0.5" fill="#3576BB" d="M546.545,179.882h129.051c2.209,0,4,1.791,4,4v56.145c0,2.209-1.791,4-4,4H546.545
	c-2.209,0-4-1.791-4-4v-56.145C542.545,181.672,544.335,179.882,546.545,179.882z"/>
<text transform="matrix(1 0 0 1 547.5449 192.8809)" font-family="'ArialMT'" font-size="12">En principe huis clos, </text>
<text transform="matrix(1 0 0 1 547.5449 206.8809)" font-family="'ArialMT'" font-size="12">sauf si un intérêt public </text>
<text transform="matrix(1 0 0 1 547.5449 220.8809)" font-family="'ArialMT'" font-size="12">justifie le contraire (203 </text>
<text transform="matrix(1 0 0 1 547.5449 234.8809)" font-family="'ArialMT'" font-size="12">III)</text>
<path opacity="0.75" fill="#3576BB" d="M687.635,55.699H806.94c2.209,0,4,1.791,4,4v50.004c0,2.209-1.791,4-4,4H687.635
	c-2.21,0-4-1.791-4-4V59.699C683.635,57.49,685.425,55.699,687.635,55.699z"/>
<text transform="matrix(1 0 0 1 693.749 73.7012)" font-family="'Helvetica-Bold'" font-size="13">Maxime de dispo- </text>
<text transform="matrix(1 0 0 1 699.1602 89.7012)" font-family="'Helvetica-Bold'" font-size="13">sition et maxime</text>
<text transform="matrix(1 0 0 1 713.8774 105.7012)" font-family="'Helvetica-Bold'" font-size="13">d&apos;ofﬁce (58)</text>
<path opacity="0.5" fill="#3576BB" d="M687.92,117.791h118.961c2.209,0,4,1.791,4,4v210.543c0,2.209-1.791,4-4,4H687.92
	c-2.209,0-4-1.791-4-4V121.791C683.92,119.582,685.711,117.791,687.92,117.791z"/>
<text transform="matrix(1 0 0 1 688.9194 130.791)" font-family="'ArialMT'" font-size="12">• </text>
<text transform="matrix(1 0 0 1 696.4546 130.791)" font-family="'Arial-BoldMT'" font-size="12">Maxime de </text>
<text transform="matrix(1 0 0 1 693.9194 144.791)" font-family="'Arial-BoldMT'" font-size="12">disposition </text>
<text transform="matrix(1 0 0 1 761.2495 144.791)" font-family="'ArialMT'" font-size="12">: les </text>
<text transform="matrix(1 0 0 1 693.9194 158.791)" font-family="'ArialMT'" font-size="12">parties prennent </text>
<text transform="matrix(1 0 0 1 693.9194 172.791)" font-family="'ArialMT'" font-size="12">l&apos;initiative de la </text>
<text transform="matrix(1 0 0 1 693.9194 186.791)" font-family="'ArialMT'" font-size="12">procédure</text>
<text transform="matrix(1 0 0 1 688.9194 214.791)" font-family="'ArialMT'" font-size="12">• </text>
<text transform="matrix(1 0 0 1 696.4546 214.791)" font-family="'Arial-BoldMT'" font-size="12">Maxime d&apos;office </text>
<text transform="matrix(1 0 0 1 789.3315 214.791)" font-family="'ArialMT'" font-size="12">: </text>
<text transform="matrix(1 0 0 1 693.9194 228.791)" font-family="'ArialMT'" font-size="12">l&apos;initiative de la </text>
<text transform="matrix(1 0 0 1 693.9194 242.791)" font-family="'ArialMT'" font-size="12">procédure est prise </text>
<text transform="matrix(1 0 0 1 693.9194 256.791)" font-family="'ArialMT'" font-size="12">par une autorité</text>
<path opacity="0.5" fill="#3576BB" d="M687.922,340.961h118.959c2.209,0,4,1.791,4,4V536.05c0,2.209-1.791,4-4,4H687.922
	c-2.209,0-4-1.791-4-4V344.961C683.922,342.752,685.713,340.961,687.922,340.961z"/>
<path opacity="0.5" fill="#3576BB" d="M687.818,544.021H806.94c2.209,0,4,1.79,4,4v214.1c0,2.209-1.791,4-4,4H687.818
	c-2.21,0-4-1.791-4-4v-214.1C683.818,545.81,685.608,544.021,687.818,544.021z"/>
<text transform="matrix(1 0 0 1 689.2095 599.0195)" font-family="'ArialMT'" font-size="12">• </text>
<text transform="matrix(1 0 0 1 696.7446 599.0195)" font-family="'Arial-BoldMT'" font-size="12">Maxime de </text>
<text transform="matrix(1 0 0 1 694.2095 613.0195)" font-family="'Arial-BoldMT'" font-size="12">disposition</text>
<text transform="matrix(1 0 0 1 758.2056 613.0195)" font-family="'ArialMT'" font-size="12"> : le </text>
<text transform="matrix(1 0 0 1 694.2095 627.0195)" font-family="'ArialMT'" font-size="12">tribunal ne peut </text>
<text transform="matrix(1 0 0 1 694.2095 641.0195)" font-family="'ArialMT'" font-size="12">statuer au-delà des </text>
<text transform="matrix(1 0 0 1 694.2095 655.0195)" font-family="'ArialMT'" font-size="12">conclusions des </text>
<text transform="matrix(1 0 0 1 694.2095 669.0195)" font-family="'ArialMT'" font-size="12">parties</text>
<text transform="matrix(1 0 0 1 689.2095 697.0195)" font-family="'ArialMT'" font-size="12">• </text>
<text transform="matrix(1 0 0 1 696.7446 697.0195)" font-family="'Arial-BoldMT'" font-size="12">Maxime d&apos;office</text>
<text transform="matrix(1 0 0 1 786.2876 697.0195)" font-family="'ArialMT'" font-size="12"> : le </text>
<text transform="matrix(1 0 0 1 694.2095 711.0195)" font-family="'ArialMT'" font-size="12">tribunal n&apos;est pas lié </text>
<text transform="matrix(1 0 0 1 694.2095 725.0195)" font-family="'ArialMT'" font-size="12">par les conclusions </text>
<text transform="matrix(1 0 0 1 694.2095 739.0195)" font-family="'ArialMT'" font-size="12">des parties</text>
<path opacity="0.75" fill="#3576BB" d="M818.943,55.699h116.585c2.209,0,4,1.791,4,4v50.004c0,2.209-1.791,4-4,4H818.943
	c-2.209,0-4-1.791-4-4V59.699C814.943,57.49,816.734,55.699,818.943,55.699z"/>
<text transform="matrix(1 0 0 1 841.4355 73.7012)" font-family="'Helvetica-Bold'" font-size="13">Maxime des </text>
<text transform="matrix(1 0 0 1 823.7354 89.7012)" font-family="'Helvetica-Bold'" font-size="13">débats et maxime </text>
<text transform="matrix(1 0 0 1 829.8926 105.7012)" font-family="'Helvetica-Bold'" font-size="13">inquisitoire (55)</text>
<path opacity="0.5" fill="#3576BB" d="M947.28,433.158h118.439c2.209,0,4,1.791,4,4v98.893c0,2.209-1.791,4-4,4H947.28
	c-2.209,0-4-1.791-4-4v-98.893C943.28,434.949,945.071,433.158,947.28,433.158z"/>
<path opacity="0.5" fill="#3576BB" d="M818.95,117.79h116.681c2.209,0,4,1.791,4,4v640.33c0,2.209-1.791,4-4,4H818.95
	c-2.209,0-4-1.791-4-4V121.79C814.95,119.581,816.741,117.79,818.95,117.79z"/>
<text transform="matrix(1 0 0 1 819.9497 284.79)" font-family="'ArialMT'" font-size="12">• Maxime des </text>
<text transform="matrix(1 0 0 1 824.9497 298.79)" font-family="'ArialMT'" font-size="12">débats : les parties </text>
<text transform="matrix(1 0 0 1 824.9497 312.79)" font-family="'ArialMT'" font-size="12">doivent alléguer les </text>
<text transform="matrix(1 0 0 1 824.9497 326.79)" font-family="'ArialMT'" font-size="12">faits pertinents et les </text>
<text transform="matrix(1 0 0 1 824.9497 340.79)" font-family="'ArialMT'" font-size="12">prouver</text>
<text transform="matrix(1 0 0 1 819.9497 368.79)" font-family="'ArialMT'" font-size="12">• Maxime </text>
<text transform="matrix(1 0 0 1 824.9497 382.79)" font-family="'ArialMT'" font-size="12">inquisitoire : le </text>
<text transform="matrix(1 0 0 1 824.9497 396.79)" font-family="'ArialMT'" font-size="12">tribunal établit les </text>
<text transform="matrix(1 0 0 1 824.9497 410.79)"><tspan x="0" y="0" font-family="'ArialMT'" font-size="12">faits d&apos;o</tspan><tspan x="40.98" y="0" font-family="'ArialMT'" font-size="12">f</tspan><tspan x="44.099" y="0" font-family="'ArialMT'" font-size="12">fice</tspan></text>
<text transform="matrix(1 0 0 1 819.9497 438.79)" font-family="'ArialMT'" font-size="12">•  Maxime inquisitoire </text>
<text transform="matrix(1 0 0 1 824.9497 452.79)" font-family="'ArialMT'" font-size="12">&quot;sociale&quot; (247 II) : </text>
<text transform="matrix(1 0 0 1 824.9497 466.79)" font-family="'ArialMT'" font-size="12">faits allégués et </text>
<text transform="matrix(1 0 0 1 824.9497 480.79)" font-family="'ArialMT'" font-size="12">preuves complétés </text>
<text transform="matrix(1 0 0 1 824.9497 494.79)" font-family="'ArialMT'" font-size="12">par le juge : soutien </text>
<text transform="matrix(1 0 0 1 824.9497 508.79)" font-family="'ArialMT'" font-size="12">aux parties varie si </text>
<text transform="matrix(1 0 0 1 824.9497 522.79)" font-family="'ArialMT'" font-size="12">elles agissent seules </text>
<text transform="matrix(1 0 0 1 824.9497 536.79)" font-family="'ArialMT'" font-size="12">ou par avocat </text>
<text transform="matrix(1 0 0 1 824.9497 550.79)" font-family="'ArialMT'" font-size="12">(4D_57/2013; </text>
<text transform="matrix(1 0 0 1 824.9497 564.79)" font-family="'ArialMT'" font-size="12">4A_519/2010)</text>
<path opacity="0.75" fill="#3576BB" d="M947.4,55.699h118.598c2.209,0,4,1.791,4,4v50.004c0,2.209-1.791,4-4,4H947.4
	c-2.21,0-4-1.791-4-4V59.699C943.4,57.49,945.19,55.699,947.4,55.699z"/>
<text transform="matrix(1 0 0 1 960.5669 81.7012)" font-family="'Helvetica-Bold'" font-size="13">Application du</text>
<text transform="matrix(1 0 0 1 953.2388 97.7012)" font-family="'Helvetica-Bold'" font-size="13">droit d&apos;ofﬁce (57)</text>
<path opacity="0.5" fill="#3576BB" d="M947.278,117.791H1066c2.209,0,4,1.791,4,4v118.236c0,2.209-1.791,4-4,4H947.278
	c-2.209,0-4-1.791-4-4V121.791C943.278,119.581,945.069,117.791,947.278,117.791z"/>
<path opacity="0.5" fill="#3576BB" d="M947.278,340.961h118.441c2.209,0,4,1.791,4,4v80.22c0,2.209-1.791,4-4,4H947.278
	c-2.209,0-4-1.791-4-4v-80.22C943.278,342.752,945.069,340.961,947.278,340.961z"/>
<path opacity="0.5" fill="#3576BB" d="M947.28,544.021h118.439c2.209,0,4,1.79,4,4v214.1c0,2.209-1.791,4-4,4H947.28
	c-2.209,0-4-1.791-4-4v-214.1C943.28,545.81,945.071,544.021,947.28,544.021z"/>
<path opacity="0.5" fill="#3576BB" d="M947.278,248.116h118.441c2.209,0,4,1.791,4,4v80.218c0,2.209-1.791,4-4,4H947.278
	c-2.209,0-4-1.791-4-4v-80.218C943.278,249.907,945.069,248.116,947.278,248.116z"/>
<path opacity="0.5" fill="#3576BB" d="M171.458,248.114h214.984c2.209,0,4,1.791,4,4v80.218c0,2.209-1.791,4-4,4H171.458
	c-2.209,0-4-1.791-4-4v-80.218C167.458,249.905,169.249,248.114,171.458,248.114z"/>
<text transform="matrix(1 0 0 1 193.0771 261.1143)" font-family="'Helvetica'" font-size="12">Devoir de dire la vérité dans ses </text>
<text transform="matrix(1 0 0 1 216.415 275.1143)" font-family="'Helvetica'" font-size="12">allégations (160 I let. a)</text>
<text transform="matrix(1 0 0 1 173.7266 289.1143)" font-family="'Helvetica'" font-size="12">Devoir des parties de faire en sorte que </text>
<text transform="matrix(1 0 0 1 186.7373 303.1143)" font-family="'Helvetica'" font-size="12">les actes puissent leur être notiﬁés </text>
<text transform="matrix(1 0 0 1 231.4268 317.1143)" font-family="'Helvetica'" font-size="12">(RSPC 2008 140)</text>
<path opacity="0.5" fill="#3576BB" d="M171.504,117.79h214.741c2.209,0,4,1.791,4,4v50.005c0,2.209-1.791,4-4,4H171.504
	c-2.209,0-4-1.791-4-4V121.79C167.504,119.581,169.295,117.79,171.504,117.79z"/>
<text transform="matrix(1 0 0 1 179.4927 130.79)" font-family="'ArialMT'" font-size="12">Fixation d&apos;un délai par le tribunal pour </text>
<text transform="matrix(1 0 0 1 197.9966 144.79)" font-family="'ArialMT'" font-size="12">rectifier les vices de procédure </text>
<text transform="matrix(1 0 0 1 207.7759 158.79)"><tspan x="0" y="0" font-family="'ArialMT'" font-size="12">réparables (</tspan><tspan x="64.031" y="0" font-family="'ArialMT'" font-size="12">A</tspan><tspan x="71.147" y="0" font-family="'ArialMT'" font-size="12">TF 125 I 166)</tspan></text>
<path opacity="0.5" fill="#3576BB" d="M171.458,179.882h214.954c2.21,0,4,1.791,4,4v56.145c0,2.209-1.79,4-4,4H171.458
	c-2.209,0-4-1.791-4-4v-56.145C167.458,181.672,169.249,179.882,171.458,179.882z"/>
<text transform="matrix(1 0 0 1 176.3579 192.8809)" font-family="'Helvetica'" font-size="12">Parties : ne pas éluder la procédure de </text>
<text transform="matrix(1 0 0 1 190.8584 206.8809)" font-family="'Helvetica'" font-size="12">conciliation pour créer plus vite la </text>
<text transform="matrix(1 0 0 1 202.9727 220.8809)"><tspan x="0" y="0" font-family="'Helvetica'" font-size="12">litispendance (</tspan><tspan x="77.379" y="0" font-family="'Helvetica'" font-size="12">A</tspan><tspan x="84.507" y="0" font-family="'Helvetica'" font-size="12">TF 72 II 321)</tspan></text>
<path opacity="0.5" fill="#3576BB" d="M171.458,340.961H386.44c2.209,0,4,1.791,4,4v80.22c0,2.209-1.791,4-4,4H171.458
	c-2.209,0-4-1.791-4-4v-80.22C167.458,342.752,169.249,340.961,171.458,340.961z"/>
<text transform="matrix(1 0 0 1 187.5264 353.9609)" font-family="'Helvetica'" font-size="12">Devoir de coopérer à la procédure </text>
<text transform="matrix(1 0 0 1 192.4102 367.9609)"><tspan x="0" y="0" font-family="'Helvetica'" font-size="12">probatoire (164 ;</tspan><tspan x="88.055" y="0" font-family="'Helvetica'" font-size="12"> </tspan><tspan x="90.741" y="0" font-family="'Helvetica'" font-size="12">A</tspan><tspan x="97.869" y="0" font-family="'Helvetica'" font-size="12">TF </tspan><tspan x="115.863" y="0" font-family="'Helvetica'" font-size="12">1</tspan><tspan x="121.661" y="0" font-family="'Helvetica'" font-size="12">19 II 305)</tspan></text>
<path opacity="0.5" fill="#3576BB" d="M171.458,433.158h214.954c2.209,0,4,1.791,4,4v98.893c0,2.209-1.791,4-4,4H171.458
	c-2.209,0-4-1.791-4-4v-98.893C167.458,434.949,169.249,433.158,171.458,433.158z"/>
<text transform="matrix(1 0 0 1 171.5718 446.1592)" font-family="'ArialMT'" font-size="12">• Parties : invocation immédiate des </text>
<text transform="matrix(1 0 0 1 176.5718 460.1592)"><tspan x="0" y="0" font-family="'ArialMT'" font-size="12">moyens. Ex : récusation (</tspan><tspan x="135.387" y="0" font-family="'ArialMT'" font-size="12">A</tspan><tspan x="142.502" y="0" font-family="'ArialMT'" font-size="12">TF 124 I </tspan></text>
<text transform="matrix(1 0 0 1 176.5718 474.1592)" font-family="'ArialMT'" font-size="12">121)</text>
<text transform="matrix(1 0 0 1 171.5718 488.1592)"><tspan x="0" y="0" font-family="'ArialMT'" font-size="12">•</tspan><tspan x="4.201" y="0" font-family="'ArialMT'" font-size="12"> </tspan><tspan x="7.319" y="0" font-family="'ArialMT'" font-size="12">T</tspan><tspan x="14.205" y="0" font-family="'ArialMT'" font-size="12">ribunal : avertissement préalable en </tspan></text>
<text transform="matrix(1 0 0 1 176.5718 502.1592)" font-family="'ArialMT'" font-size="12">cas de revirement de jurisprudence sur </text>
<text transform="matrix(1 0 0 1 176.5718 516.1592)"><tspan x="0" y="0" font-family="'ArialMT'" font-size="12">les questions de procédure (</tspan><tspan x="151.424" y="0" font-family="'ArialMT'" font-size="12">A</tspan><tspan x="158.54" y="0" font-family="'ArialMT'" font-size="12">TF 132 II </tspan></text>
<text transform="matrix(1 0 0 1 176.5718 530.1592)" font-family="'ArialMT'" font-size="12">153)</text>
<path opacity="0.5" fill="#3576BB" d="M171.458,544.019h214.955c2.21,0,4,1.791,4,4v80.215c0,2.209-1.79,4-4,4H171.458
	c-2.209,0-4-1.791-4-4v-80.215C167.458,545.81,169.249,544.019,171.458,544.019z"/>
<text transform="matrix(1 0 0 1 189.5239 557.0186)" font-family="'Helvetica'" font-size="12">Interprétation des déclarations de </text>
<text transform="matrix(1 0 0 1 186.5269 571.0186)" font-family="'Helvetica'" font-size="12">procédure et des actes des parties </text>
<text transform="matrix(1 0 0 1 176.1821 585.0186)" font-family="'Helvetica'" font-size="12">conformément au principe de la bonne </text>
<text transform="matrix(1 0 0 1 272.2437 599.0186)" font-family="'Helvetica'" font-size="12">foi</text>
<text transform="matrix(1 0 0 1 231.2222 613.0186)" font-family="'Helvetica'" font-size="12">(RSPC 2009 365)</text>
<path opacity="0.5" fill="#3576BB" d="M171.458,636.201h214.909c2.21,0,4,1.791,4,4v121.918c0,2.209-1.79,4-4,4H171.458
	c-2.209,0-4-1.791-4-4V640.201C167.458,637.992,169.249,636.201,171.458,636.201z"/>
<text transform="matrix(1 0 0 1 170.3101 649.2012)" font-family="'ArialMT'" font-size="12">• Notification irrégulière d&apos;une décision : </text>
<text transform="matrix(1 0 0 1 175.3101 663.2012)" font-family="'ArialMT'" font-size="12">le délai de recours commence à courir </text>
<text transform="matrix(1 0 0 1 175.3101 677.2012)"><tspan x="0" y="0" font-family="'ArialMT'" font-size="12">dès connaissance de la décision (</tspan><tspan x="180.111" y="0" font-family="'ArialMT'" font-size="12">A</tspan><tspan x="187.227" y="0" font-family="'ArialMT'" font-size="12">TF </tspan></text>
<text transform="matrix(1 0 0 1 175.3101 691.2012)" font-family="'ArialMT'" font-size="12">135 III 374)</text>
<text transform="matrix(1 0 0 1 170.3101 705.2012)" font-family="'ArialMT'" font-size="12">• L&apos;indication inexacte des voies de droit </text>
<text transform="matrix(1 0 0 1 175.3101 719.2012)" font-family="'ArialMT'" font-size="12">ne doit pas porter préjudice au </text>
<text transform="matrix(1 0 0 1 175.3101 733.2012)" font-family="'ArialMT'" font-size="12">justiciable si erreur pas clairement </text>
<text transform="matrix(1 0 0 1 175.3101 747.2012)"><tspan x="0" y="0" font-family="'ArialMT'" font-size="12">reconnaissable (</tspan><tspan x="88.049" y="0" font-family="'ArialMT'" font-size="12">A</tspan><tspan x="95.165" y="0" font-family="'ArialMT'" font-size="12">TF 134 III 374 ; 124 I </tspan></text>
<text transform="matrix(1 0 0 1 175.3101 761.2012)" font-family="'ArialMT'" font-size="12">255)</text>
<path opacity="0.5" fill="#3576BB" d="M546.544,248.113h129.09c2.209,0,4,1.791,4,4v80.217c0,2.209-1.791,4-4,4h-129.09
	c-2.209,0-4-1.791-4-4v-80.217C542.544,249.904,544.335,248.113,546.544,248.113z"/>
<text transform="matrix(1 0 0 1 556.4004 261.1133)" font-family="'ArialMT'" font-size="12">Ecritures des parties </text>
<text transform="matrix(1 0 0 1 573.7236 275.1133)" font-family="'ArialMT'" font-size="12">non publiques</text>
<path fill="none" stroke="#3576BB" stroke-linecap="round" stroke-linejoin="round" stroke-miterlimit="10" d="M546.577,11.5h545
	c2.427-0.014,4.217,1.777,4,4v26c0.217,2.18-1.573,3.971-4,4h-545c-2.164-0.029-3.955-1.82-4-4v-26
	C542.622,13.277,544.413,11.486,546.577,11.5z"/>
<text transform="matrix(1 0 0 1 687.2104 33.9785)" fill="#3576BB" font-family="'Helvetica-Bold'" font-size="14">Principes de procédure (art. 52-58 CPC)</text>
<rect x="945.335" y="122" fill="none" width="123" height="92.334"/>
<text transform="matrix(1 0 0 1 953.9863 130.5913)"><tspan x="0" y="0" font-family="'ArialMT'" font-size="12">Le juge n&apos;est pas lié </tspan><tspan x="1.673" y="14.4" font-family="'ArialMT'" font-size="12">par l&apos;argumentation </tspan><tspan x="-2.528" y="28.8" font-family="'ArialMT'" font-size="12">juridique développée </tspan><tspan x="-5.171" y="43.2" font-family="'ArialMT'" font-size="12">par les parties (RSPC </tspan><tspan x="25.825" y="57.6" font-family="'ArialMT'" font-size="12">2009 356)  </tspan></text>
<rect x="944.335" y="252.667" fill="none" width="123" height="92.333"/>
<text transform="matrix(1 0 0 1 954.1406 261.2583)"><tspan x="0" y="0" font-family="'ArialMT'" font-size="12">Motivation juridique </tspan><tspan x="-3.668" y="14.4" font-family="'ArialMT'" font-size="12">pas nécessaire (sauf </tspan><tspan x="-2.672" y="28.8" font-family="'ArialMT'" font-size="12">droits fondamentaux </tspan><tspan x="-8.666" y="43.2" font-family="'ArialMT'" font-size="12">dans le recours consti</tspan><tspan x="108.059" y="43.2" font-family="'ArialMT'" font-size="12">-</tspan><tspan x="-4.673" y="57.6" font-family="'ArialMT'" font-size="12">tutionnel subsidiaire : </tspan><tspan x="9.891" y="72" font-family="'ArialMT'" font-size="12">106 et </tspan><tspan x="46.588" y="72" font-family="'ArialMT'" font-size="12">1</tspan><tspan x="52.374" y="72" font-family="'ArialMT'" font-size="12">17 </tspan><tspan x="69.056" y="72" font-family="'ArialMT'" font-size="12">L</tspan><tspan x="74.841" y="72" font-family="'ArialMT'" font-size="12">TF)  </tspan></text>
<rect x="944.335" y="344.333" fill="none" width="123" height="92.333"/>
<text transform="matrix(1 0 0 1 948.2988 352.5674)"><tspan x="0" y="0" font-family="'ArialMT'" font-size="11.5">Pas besoin de prouver </tspan><tspan x="-0.32" y="13.8" font-family="'ArialMT'" font-size="11.5">le droit applicable (150 </tspan><tspan x="5.121" y="27.6" font-family="'ArialMT'" font-size="11.5">I), sauf si application </tspan><tspan x="-3.019" y="41.4" font-family="'ArialMT'" font-size="11.5">d&apos;un droit étranger dans </tspan><tspan x="-1.918" y="55.2" font-family="'ArialMT'" font-size="11.5">une cause patrimoniale </tspan><tspan x="13.751" y="69" font-family="'ArialMT'" font-size="11.5">(150 II ; 16 LDIP)</tspan></text>
<rect x="944.335" y="436.663" fill="none" width="123" height="102.333"/>
<text transform="matrix(1 0 0 1 951.9844 445.2915)"><tspan x="0" y="0" font-family="'Helvetica'" font-size="12">Le tribunal n&apos;a pas à </tspan><tspan x="0.009" y="14.4" font-family="'Helvetica'" font-size="12">attirer l&apos;attention des </tspan><tspan x="-5.52" y="28.8" font-family="'Helvetica'" font-size="12">parties sur un point de </tspan><tspan x="-3.841" y="43.2" font-family="'Helvetica'" font-size="12">droit particulier ou sur </tspan><tspan x="3.829" y="57.6" font-family="'Helvetica'" font-size="12">le caractère décisif </tspan><tspan x="1.67" y="72" font-family="'Helvetica'" font-size="12">d&apos;un élément de fait </tspan><tspan x="12.273" y="86.4" font-family="'Helvetica'" font-size="12">(</tspan><tspan x="16.27" y="86.4" font-family="'Helvetica'" font-size="12">A</tspan><tspan x="23.397" y="86.4" font-family="'Helvetica'" font-size="12">TF 130 III 35)</tspan></text>
<rect x="944.335" y="548.163" fill="none" width="123" height="102.333"/>
<text transform="matrix(1 0 0 1 952.9863 556.7554)"><tspan x="0" y="0" font-family="'ArialMT'" font-size="12">Le juge n&apos;est pas lié </tspan><tspan x="1.673" y="14.4" font-family="'ArialMT'" font-size="12">par l&apos;argumentation </tspan><tspan x="-2.528" y="28.8" font-family="'ArialMT'" font-size="12">juridique développée </tspan><tspan x="-5.171" y="43.2" font-family="'ArialMT'" font-size="12">par les parties (RSPC </tspan><tspan x="25.825" y="57.6" font-family="'ArialMT'" font-size="12">2009 356)</tspan></text>
<rect x="686.108" y="344.333" fill="none" width="123" height="92.333"/>
<text transform="matrix(1 0 0 1 699.2217 352.9253)"><tspan x="0" y="0" font-family="'ArialMT'" font-size="12">Si maxime d&apos;o</tspan><tspan x="74.982" y="0" font-family="'ArialMT'" font-size="12">f</tspan><tspan x="78.101" y="0" font-family="'ArialMT'" font-size="12">fice </tspan><tspan x="0.026" y="14.4" font-family="'ArialMT'" font-size="12">établissement des</tspan><tspan x="0.325" y="28.8" font-family="'ArialMT'" font-size="12">faits d&apos;o</tspan><tspan x="41.306" y="28.8" font-family="'ArialMT'" font-size="12">f</tspan><tspan x="44.424" y="28.8" font-family="'ArialMT'" font-size="12">fice par le </tspan><tspan x="28.708" y="43.2" font-family="'ArialMT'" font-size="12">tribunal</tspan></text>
</svg>
