<?xml version="1.0" encoding="utf-8"?>
<!-- Generator: Adobe Illustrator 17.1.0, SVG Export Plug-In . SVG Version: 6.00 Build 0)  -->
<!DOCTYPE svg PUBLIC "-//W3C//DTD SVG 1.1//EN" "http://www.w3.org/Graphics/SVG/1.1/DTD/svg11.dtd">
<svg version="1.1" id="Calque_1" xmlns="http://www.w3.org/2000/svg" xmlns:xlink="http://www.w3.org/1999/xlink" x="0px" y="0px"
	 viewBox="0 0 574 806" enable-background="new 0 0 574 806" xml:space="preserve">
<path fill="#FFFFFF" d="M16,11h542c2.209,0,4,1.791,4,4v22c0,2.209-1.791,4-4,4H16c-2.209,0-4-1.791-4-4V15
	C12,12.791,13.791,11,16,11z"/>
<path fill="none" stroke="#AC1480" stroke-linecap="round" stroke-linejoin="round" stroke-miterlimit="10" d="M16.5,11.5h542
	c1.709-0.5,3.5,1.291,4,4v22c-0.5,1.709-2.291,3.5-4,4h-542c-2.709-0.5-4.5-2.291-4-4v-22C12,12.791,13.791,11,16.5,11.5z"/>
<text transform="matrix(1 0 0 1 259.376 31.5)" fill="#AC1480" font-family="'Helvetica-Bold'" font-size="14">Sources</text>
<path fill="#AC1480" d="M16,319.426h541.333c2.21,0,4,1.791,4,4V339.3c0,2.21-1.79,4-4,4H16c-2.209,0-4-1.79-4-4v-15.874
	C12,321.217,13.791,319.426,16,319.426z"/>
<path fill="none" stroke="#AC1480" stroke-linecap="round" stroke-linejoin="round" stroke-miterlimit="10" d="M16.5,319.5h541
	c2.043-0.074,3.833,1.717,4,4v16c-0.167,2.009-1.957,3.8-4,4h-541c-2.709-0.2-4.5-1.991-4-4v-16
	C12,321.217,13.791,319.426,16.5,319.5z"/>
<text transform="matrix(1 0 0 1 251.3257 335.3633)" fill="#FFFFFF" font-family="'Helvetica-Bold'" font-size="12">Droit fédéral</text>
<path fill="#AC1480" d="M236.767,412.129h69.604c2.209,0,4,1.791,4,4v7.126c0,2.209-1.791,4-4,4h-69.604c-2.209,0-4-1.791-4-4
	v-7.126C232.767,413.92,234.558,412.129,236.767,412.129z"/>
<text transform="matrix(1 0 0 1 259.9565 423.2832)" fill="#FFFFFF" font-family="'Helvetica'" font-size="11">CPC</text>
<path fill="#AC1480" d="M405.679,412.129h70.048c2.209,0,4,1.791,4,4v7.126c0,2.209-1.791,4-4,4h-70.048c-2.209,0-4-1.791-4-4
	v-7.126C401.679,413.92,403.47,412.129,405.679,412.129z"/>
<text transform="matrix(1 0 0 1 431.3301 423.1318)"><tspan x="0" y="0" fill="#FFFFFF" font-family="'Helvetica'" font-size="11">L</tspan><tspan x="5.314" y="0" fill="#FFFFFF" font-family="'Helvetica'" font-size="11">TF</tspan></text>
<path fill="#AC1480" d="M16.89,650.8h539.333c2.21,0,4,1.791,4,4v15.873c0,2.21-1.79,4-4,4H16.89c-2.209,0-4-1.79-4-4V654.8
	C12.89,652.591,14.681,650.8,16.89,650.8z"/>
<path fill="none" stroke="#AC1480" stroke-linecap="round" stroke-linejoin="round" stroke-miterlimit="10" d="M17.5,651.5h539
	c1.933-0.7,3.723,1.091,4,4v15c-0.277,2.383-2.067,4.173-4,4h-539c-2.819,0.173-4.61-1.617-4-4v-15
	C12.89,652.591,14.681,650.8,17.5,651.5z"/>
<text transform="matrix(1 0 0 1 186.5342 666.7363)" fill="#FFFFFF" font-family="'Helvetica-Bold'" font-size="12">Droit cantonal : 122 II Cst. et 3 CPC</text>
<path fill="#AC1480" d="M299.218,102.53H558c2.209,0,4,1.791,4,4v6.907c0,2.209-1.791,4-4,4H299.218c-2.209,0-4-1.791-4-4v-6.907
	C295.218,104.321,297.009,102.53,299.218,102.53z"/>
<path fill="none" stroke="#AC1480" stroke-linecap="round" stroke-linejoin="round" stroke-miterlimit="10" d="M299.5,102.5h259
	c1.709,0.03,3.5,1.821,4,4v7c-0.5,2.147-2.291,3.938-4,4h-259c-2.491-0.062-4.282-1.853-4-4v-7
	C295.218,104.321,297.009,102.53,299.5,102.5z"/>
<text transform="matrix(1 0 0 1 346.9233 113.9844)" fill="#FFFFFF" font-family="'Helvetica-Bold'" font-size="12">Autres traités internationaux</text>
<path fill="#AC1480" d="M152.676,412.129h73.095c2.21,0,4,1.791,4,4v7.126c0,2.209-1.79,4-4,4h-73.095c-2.21,0-4-1.791-4-4v-7.126
	C148.676,413.92,150.466,412.129,152.676,412.129z"/>
<text transform="matrix(1 0 0 1 176.9961 423.1318)" fill="#FFFFFF" font-family="'Helvetica'" font-size="11">LDIP</text>
<path fill="#AC1480" d="M16,65.127h542c2.209,0,4,1.79,4,4v7.278c0,2.209-1.791,4-4,4H16c-2.209,0-4-1.791-4-4v-7.278
	C12,66.917,13.791,65.127,16,65.127z"/>
<text transform="matrix(1 0 0 1 235.332 76.7656)" fill="#FFFFFF" font-family="'Helvetica-Bold'" font-size="12">Droit international</text>
<path opacity="0.75" fill="#AC1480" d="M299.218,137.883H558c2.209,0,4,1.791,4,4v18.1c0,2.209-1.791,4-4,4H299.218
	c-2.209,0-4-1.791-4-4v-18.1C295.218,139.674,297.009,137.883,299.218,137.883z"/>
<text transform="matrix(1 0 0 1 315.459 154.4336)"><tspan x="0" y="0" fill="#FFFFFF" font-family="'Helvetica'" font-size="11">A</tspan><tspan x="7.337" y="0" fill="#FFFFFF" font-family="'Helvetica'" font-size="11">f</tspan><tspan x="10.206" y="0" fill="#FFFFFF" font-family="'Helvetica'" font-size="11">faires internationales (éléments d&apos;extranéité)</tspan></text>
<path opacity="0.75" fill="#AC1480" d="M236.387,448.268h69.984c2.209,0,4,1.791,4,4v39.612c0,2.209-1.791,4-4,4h-69.984
	c-2.21,0-4-1.791-4-4v-39.612C232.387,450.059,234.178,448.268,236.387,448.268z"/>
<text transform="matrix(1 0 0 1 238.1147 464.2793)"><tspan x="0" y="0" fill="#FFFFFF" font-family="'Helvetica'" font-size="10">A</tspan><tspan x="6.67" y="0" fill="#FFFFFF" font-family="'Helvetica'" font-size="10">f</tspan><tspan x="9.278" y="0" fill="#FFFFFF" font-family="'Helvetica'" font-size="10">faires devant </tspan></text>
<text transform="matrix(1 0 0 1 239.9775 476.2793)" fill="#FFFFFF" font-family="'Helvetica'" font-size="10">les juridictions </text>
<text transform="matrix(1 0 0 1 247.1943 488.2793)" fill="#FFFFFF" font-family="'Helvetica'" font-size="10">cantonales</text>
<path opacity="0.75" fill="#AC1480" d="M403.441,448.268h72.187c2.21,0,4,1.791,4,4v39.612c0,2.21-1.79,4-4,4h-72.187
	c-2.209,0-4-1.79-4-4v-39.612C399.441,450.059,401.232,448.268,403.441,448.268z"/>
<text transform="matrix(1 0 0 1 406.2705 463.959)"><tspan x="0" y="0" fill="#FFFFFF" font-family="'Helvetica'" font-size="10">A</tspan><tspan x="6.67" y="0" fill="#FFFFFF" font-family="'Helvetica'" font-size="10">f</tspan><tspan x="9.278" y="0" fill="#FFFFFF" font-family="'Helvetica'" font-size="10">faires devant </tspan></text>
<text transform="matrix(1 0 0 1 416.4609 475.959)"><tspan x="0" y="0" fill="#FFFFFF" font-family="'Helvetica'" font-size="10">le</tspan><tspan x="7.783" y="0" fill="#FFFFFF" font-family="'Helvetica'" font-size="10"> </tspan><tspan x="10.392" y="0" fill="#FFFFFF" font-family="'Helvetica'" font-size="10">T</tspan><tspan x="16.14" y="0" fill="#FFFFFF" font-family="'Helvetica'" font-size="10">ribunal </tspan></text>
<text transform="matrix(1 0 0 1 424.2466 487.959)" fill="#FFFFFF" font-family="'Helvetica'" font-size="10">fédéral</text>
<path fill="#AC1480" d="M237.512,365.151h68.439c2.209,0,4,1.791,4,4v18.099c0,2.209-1.791,4-4,4h-68.439c-2.21,0-4-1.791-4-4
	v-18.099C233.512,366.942,235.303,365.151,237.512,365.151z"/>
<text transform="matrix(1 0 0 1 248.1924 381.75)" fill="#FFFFFF" font-family="'Helvetica'" font-size="11">122 I Cst.</text>
<path fill="#AC1480" d="M404.899,365.151h72.033c2.21,0,4,1.791,4,4v18.1c0,2.209-1.79,4-4,4h-72.033c-2.209,0-4-1.791-4-4v-18.1
	C400.899,366.942,402.69,365.151,404.899,365.151z"/>
<text transform="matrix(1 0 0 1 409.4253 381.6387)" fill="#FFFFFF" font-family="'Helvetica'" font-size="11">188-191 Cst.</text>
<path fill="#AC1480" d="M16,102.947h113.499c2.209,0,4,1.791,4,4v6.709c0,2.209-1.791,4-4,4H16c-2.209,0-4-1.791-4-4v-6.709
	C12,104.737,13.791,102.947,16,102.947z"/>
<path fill="none" stroke="#AC1480" stroke-linecap="round" stroke-linejoin="round" stroke-miterlimit="10" d="M16.5,103.5h113
	c2.208-0.553,3.999,1.237,4,4v6c-0.001,2.365-1.792,4.156-4,4h-113c-2.709,0.156-4.5-1.635-4-4v-6
	C12,104.737,13.791,102.947,16.5,103.5z"/>
<text transform="matrix(1 0 0 1 55.7485 114.3018)" fill="#FFFFFF" font-family="'Helvetica-Bold'" font-size="12">CEDH</text>
<path opacity="0.75" fill="#AC1480" d="M16,365.288h123c2.209,0,4,1.79,4,4V625c0,2.209-1.791,4-4,4H16c-2.209,0-4-1.791-4-4
	V369.288C12,367.079,13.791,365.288,16,365.288z"/>
<text transform="matrix(1 0 0 1 26.751 384.2881)" fill="#FFFFFF" font-family="'Helvetica'" font-size="11">Droits fondamentaux</text>
<path opacity="0.75" fill="#AC1480" d="M152.676,448.268h72.819c2.209,0,4,1.791,4,4v39.487c0,2.21-1.791,4-4,4h-72.819
	c-2.21,0-4-1.79-4-4v-39.487C148.676,450.059,150.466,448.268,152.676,448.268z"/>
<text transform="matrix(1 0 0 1 172.2222 470.7607)"><tspan x="0" y="0" fill="#FFFFFF" font-family="'Helvetica'" font-size="10">A</tspan><tspan x="6.67" y="0" fill="#FFFFFF" font-family="'Helvetica'" font-size="10">f</tspan><tspan x="9.278" y="0" fill="#FFFFFF" font-family="'Helvetica'" font-size="10">faires </tspan></text>
<text transform="matrix(1 0 0 1 156.563 482.7607)" fill="#FFFFFF" font-family="'Helvetica'" font-size="10">internationales</text>
<path fill="#FFFFFF" d="M28.39,423.061h103.862c2.209,0,4,1.791,4,4v20.203c0,2.209-1.791,4-4,4H28.39c-2.209,0-4-1.791-4-4v-20.203
	C24.39,424.852,26.181,423.061,28.39,423.061z"/>
<text transform="matrix(1 0 0 1 48.9126 435.1621)" font-family="'Helvetica'" font-size="10">Interdiction de </text>
<text transform="matrix(1 0 0 1 40.7485 447.1621)" font-family="'Helvetica'" font-size="10">l&apos;arbitraire (9 Cst.)</text>
<path fill="#FFFFFF" d="M28.39,391.052h103.231c2.209,0,4,1.79,4,4v20.203c0,2.209-1.791,4-4,4H28.39c-2.209,0-4-1.791-4-4v-20.203
	C24.39,392.842,26.181,391.052,28.39,391.052z"/>
<text transform="matrix(1 0 0 1 34.1465 403.1533)" font-family="'Helvetica'" font-size="10">Egalité de traitement </text>
<text transform="matrix(1 0 0 1 63.6167 415.1533)" font-family="'Helvetica'" font-size="10">(8 Cst.)</text>
<path fill="#FFFFFF" d="M28.39,455.276h103.862c2.209,0,4,1.791,4,4v21.313c0,2.209-1.791,4-4,4H28.39c-2.209,0-4-1.791-4-4v-21.313
	C24.39,457.067,26.181,455.276,28.39,455.276z"/>
<text transform="matrix(1 0 0 1 51.6934 467.9336)" font-family="'Helvetica'" font-size="10">Garanties de </text>
<text transform="matrix(1 0 0 1 30.021 479.9336)" font-family="'Helvetica'" font-size="10">procédure (29-30 Cst.)</text>
<path opacity="0.75" fill="#AC1480" d="M16,138.3h252.624c2.209,0,4,1.79,4,4v18.1c0,2.209-1.791,4-4,4H16c-2.209,0-4-1.791-4-4
	v-18.1C12,140.09,13.791,138.3,16,138.3z"/>
<text transform="matrix(1 0 0 1 76.5776 148.3496)" fill="#FFFFFF" font-family="'Helvetica'" font-size="11">Droit à un procès équitable</text>
<text transform="matrix(1 0 0 1 67.7344 161.3496)" fill="#FFFFFF" font-family="'Helvetica'" font-size="11">(6 CEDH et 14 I Pacte ONU II)</text>
<path opacity="0.75" fill="#AC1480" d="M17.472,696.524h132.106c2.209,0,4,1.791,4,4v21.597c0,2.209-1.791,4-4,4H17.472
	c-2.209,0-4-1.791-4-4v-21.597C13.472,698.315,15.263,696.524,17.472,696.524z"/>
<text transform="matrix(1 0 0 1 29.1074 708.3223)" fill="#FFFFFF" font-family="'Helvetica'" font-size="11">Organisation judiciaire </text>
<text transform="matrix(1 0 0 1 62.7466 721.3223)" fill="#FFFFFF" font-family="'Helvetica'" font-size="11">( N 5 ss)</text>
<path opacity="0.75" fill="#AC1480" d="M162.912,696.524h269.04c2.209,0,4,1.791,4,4v22c0,2.209-1.791,4-4,4h-269.04
	c-2.209,0-4-1.791-4-4v-22C158.912,698.315,160.702,696.524,162.912,696.524z"/>
<text transform="matrix(1 0 0 1 168.5361 708.5244)"><tspan x="0" y="0" fill="#FFFFFF" font-family="'Helvetica'" font-size="11">A</tspan><tspan x="7.337" y="0" fill="#FFFFFF" font-family="'Helvetica'" font-size="11">f</tspan><tspan x="10.206" y="0" fill="#FFFFFF" font-family="'Helvetica'" font-size="11">faires civiles soustraites au CPC (art. 1 a contrario; </tspan></text>
<text transform="matrix(1 0 0 1 287.0415 721.5244)" fill="#FFFFFF" font-family="'Helvetica'" font-size="11">N 3)</text>
<path fill="#AC1480" d="M152.676,365.151h72.878c2.209,0,4,1.791,4,4v18.1c0,2.209-1.791,4-4,4h-72.878c-2.21,0-4-1.791-4-4v-18.1
	C148.676,366.942,150.466,365.151,152.676,365.151z"/>
<text transform="matrix(1 0 0 1 163.124 375.1387)" fill="#FFFFFF" font-family="'Helvetica'" font-size="11">54 II, 122 I </text>
<text transform="matrix(1 0 0 1 153.9663 388.1387)" fill="#FFFFFF" font-family="'Helvetica'" font-size="11">Cst.  et 2 CPC</text>
<polygon fill="#AC1480" points="83.749,83.828 72.749,99.106 61.75,83.828 "/>
<polygon fill="#AC1480" points="434.993,83.828 423.993,99.106 412.993,83.828 "/>
<polygon fill="#AC1480" points="434.993,120.735 423.993,136.013 412.993,120.735 "/>
<polygon fill="#AC1480" points="83.749,120.735 72.749,136.013 61.75,120.735 "/>
<polygon fill="#AC1480" points="88.5,347.319 77.5,362.597 66.5,347.319 "/>
<polygon fill="#AC1480" points="201.337,347.319 190.337,362.597 179.337,347.319 "/>
<polygon fill="#AC1480" points="281.804,347.319 270.804,362.73 259.804,347.319 "/>
<polygon fill="#AC1480" points="449.387,347.319 438.387,362.597 427.387,347.319 "/>
<polygon fill="#AC1480" points="282.379,394.19 271.379,409.601 260.379,394.19 "/>
<polygon fill="#AC1480" points="199.837,394.19 188.837,409.469 177.837,394.19 "/>
<polygon fill="#AC1480" points="450.272,394.19 439.272,409.469 428.272,394.19 "/>
<polygon fill="#AC1480" points="451.772,430.283 440.772,445.561 429.772,430.283 "/>
<polygon fill="#AC1480" points="281.804,430.283 270.804,445.693 259.804,430.283 "/>
<polygon fill="#AC1480" points="201.337,430.283 190.337,445.562 179.337,430.283 "/>
<polygon fill="#AC1480" points="94.525,678.308 83.525,693.585 72.525,678.308 "/>
<polygon fill="#AC1480" points="339.791,677.945 328.791,693.224 317.791,677.945 "/>
<polygon fill="#FFFFFF" points="298,45.424 287,60.702 276,45.424 "/>
<polygon fill="none" stroke="#AC1480" stroke-linecap="round" stroke-linejoin="round" stroke-miterlimit="10" points="298.5,45.5 
	287.5,60.5 276.5,45.5 "/>
<path fill="#AC1480" d="M155.126,102.947h113.499c2.209,0,4,1.791,4,4v6.709c0,2.209-1.791,4-4,4H155.126c-2.209,0-4-1.791-4-4
	v-6.709C151.126,104.737,152.916,102.947,155.126,102.947z"/>
<path fill="none" stroke="#AC1480" stroke-linecap="round" stroke-linejoin="round" stroke-miterlimit="10" d="M155.5,103.5h113
	c2.333-0.553,4.124,1.237,4,4v6c0.124,2.365-1.667,4.156-4,4h-113c-2.584,0.156-4.374-1.635-4-4v-6
	C151.126,104.737,152.916,102.947,155.5,103.5z"/>
<text transform="matrix(1 0 0 1 175.8633 114.3018)" fill="#FFFFFF" font-family="'Helvetica-Bold'" font-size="12">Pacte ONU II</text>
<polygon fill="#AC1480" points="222.875,83.828 211.875,99.106 200.875,83.828 "/>
<polygon fill="#AC1480" points="222.875,120.735 211.875,136.013 200.875,120.735 "/>
<path opacity="0.5" fill="#AC1480" d="M299.218,187.113H558c2.209,0,4,1.791,4,4v101.543c0,2.209-1.791,4-4,4H299.218
	c-2.209,0-4-1.791-4-4V191.113C295.218,188.904,297.009,187.113,299.218,187.113z"/>
<text transform="matrix(1 0 0 1 418.6064 197.1133)" font-family="'Helvetica'" font-size="10">Ex. :</text>
<text transform="matrix(1 0 0 1 301.0679 209.1133)"><tspan x="0" y="0" font-family="'Helvetica'" font-size="10" letter-spacing="2">•</tspan><tspan x="6.191" y="0" font-family="'Helvetica'" font-size="10">Convention de Lugano</tspan></text>
<text transform="matrix(1 0 0 1 301.0679 221.1133)"><tspan x="0" y="0" font-family="'Helvetica'" font-size="10" letter-spacing="2">•</tspan><tspan x="6.191" y="0" font-family="'Helvetica'" font-size="10">Convention sur la procédure civile</tspan></text>
<text transform="matrix(1 0 0 1 301.0679 233.1133)"><tspan x="0" y="0" font-family="'Helvetica'" font-size="10" letter-spacing="2">•</tspan><tspan x="6.191" y="0" font-family="'Helvetica'" font-size="10">Convention sur la signiﬁcation des actes à l&apos;étranger</tspan></text>
<text transform="matrix(1 0 0 1 300.2178 245.1133)" font-family="'Helvetica'" font-size="10">•  Convention sur l&apos;obtention de preuves à l&apos;étranger</text>
<text transform="matrix(1 0 0 1 300.2178 257.1133)"><tspan x="0" y="0" font-family="'Helvetica'" font-size="10">• </tspan><tspan x="6.279" y="0" font-family="'Helvetica'" font-size="10"> </tspan><tspan x="8.518" y="0" font-family="'Helvetica'" font-size="10">Accord européen sur la transmission des demandes </tspan></text>
<text transform="matrix(1 0 0 1 308.5679 269.1133)" font-family="'Helvetica'" font-size="10">d&apos;assistance judiciaire</text>
<text transform="matrix(1 0 0 1 300.2178 281.1133)" font-family="'Helvetica'" font-size="10">•  Convention sur le recouvrement des aliments à </text>
<text transform="matrix(1 0 0 1 307.418 293.1133)" font-family="'Helvetica'" font-size="10">l&apos;étranger</text>
<path opacity="0.5" fill="#AC1480" d="M16,185.843h252.624c2.209,0,4,1.791,4,4v102.813c0,2.209-1.791,4-4,4H16
	c-2.209,0-4-1.791-4-4V189.843C12,187.634,13.791,185.843,16,185.843z"/>
<text transform="matrix(1 0 0 1 132.3101 195.8428)" font-family="'Helvetica'" font-size="10">Ex. :</text>
<text transform="matrix(1 0 0 1 17.8501 207.8428)"><tspan x="0" y="0" font-family="'Helvetica'" font-size="10" letter-spacing="2">•</tspan><tspan x="6.191" y="0" font-family="'Helvetica'" font-size="10">Droit à un tribunal, indépendant et impartial</tspan></text>
<text transform="matrix(1 0 0 1 17.8501 219.8428)"><tspan x="0" y="0" font-family="'Helvetica'" font-size="10" letter-spacing="2">•</tspan><tspan x="6.191" y="0" font-family="'Helvetica'" font-size="10">Audience publique</tspan></text>
<text transform="matrix(1 0 0 1 17.8501 231.8428)"><tspan x="0" y="0" font-family="'Helvetica'" font-size="10" letter-spacing="2">•</tspan><tspan x="6.191" y="0" font-family="'Helvetica'" font-size="10">Jugement dans un délai raisonnable</tspan></text>
<text transform="matrix(1 0 0 1 17.8501 243.8428)"><tspan x="0" y="0" font-family="'Helvetica'" font-size="10" letter-spacing="2">•</tspan><tspan x="6.191" y="0" font-family="'Helvetica'" font-size="10">Droit d&apos;être entendu</tspan></text>
<text transform="matrix(1 0 0 1 17.8501 255.8428)"><tspan x="0" y="0" font-family="'Helvetica'" font-size="10" letter-spacing="2">•</tspan><tspan x="6.191" y="0" font-family="'Helvetica'" font-size="10">Egalité des armes entre les parties</tspan></text>
<text transform="matrix(1 0 0 1 17.8501 267.8428)"><tspan x="0" y="0" font-family="'Helvetica'" font-size="10" letter-spacing="2">•</tspan><tspan x="6.191" y="0" font-family="'Helvetica'" font-size="10">Droit à un avocat, é</tspan><tspan x="92.905" y="0" font-family="'Helvetica'" font-size="10">v</tspan><tspan x="97.175" y="0" font-family="'Helvetica'" font-size="10">. d&apos;ofﬁce</tspan></text>
<text transform="matrix(1 0 0 1 17.0005 279.8428)" font-family="'Helvetica'" font-size="10">• Obligation de mettre en place une instance de recours</text>
<path opacity="0.5" fill="#AC1480" d="M235.483,518.426h70.959c2.209,0,4,1.791,4,4v101.072c0,2.209-1.791,4-4,4h-70.959
	c-2.209,0-4-1.791-4-4V522.426C231.483,520.217,233.274,518.426,235.483,518.426z"/>
<text transform="matrix(1 0 0 1 262.3496 528.4258)" font-family="'Helvetica'" font-size="10">Ex.:</text>
<text transform="matrix(1 0 0 1 237.333 540.4258)"><tspan x="0" y="0" font-family="'Helvetica'" font-size="10" letter-spacing="2">•</tspan><tspan x="6.191" y="0" font-family="'Helvetica'" font-size="10">A</tspan><tspan x="12.861" y="0" font-family="'Helvetica'" font-size="10">f</tspan><tspan x="15.469" y="0" font-family="'Helvetica'" font-size="10">faires </tspan></text>
<text transform="matrix(1 0 0 1 243.6831 552.4258)" font-family="'Helvetica'" font-size="10">civiles </text>
<text transform="matrix(1 0 0 1 243.6831 564.4258)" font-family="'Helvetica'" font-size="10">contentieuses </text>
<text transform="matrix(1 0 0 1 236.4829 576.4258)"><tspan x="0" y="0" font-family="'Helvetica'" font-size="10" letter-spacing="3">•</tspan><tspan x="7.041" y="0" font-family="'Helvetica'" font-size="10">Décision </tspan></text>
<text transform="matrix(1 0 0 1 243.6831 588.4258)" font-family="'Helvetica'" font-size="10">judiciaire de </text>
<text transform="matrix(1 0 0 1 243.6831 600.4258)" font-family="'Helvetica'" font-size="10">la juridiction </text>
<text transform="matrix(1 0 0 1 243.6831 612.4258)" font-family="'Helvetica'" font-size="10">gracieuse</text>
<path opacity="0.5" fill="#AC1480" d="M153.489,518.426h72.197c2.209,0,4,1.791,4,4v101.072c0,2.209-1.791,4-4,4h-72.197
	c-2.209,0-4-1.791-4-4V522.426C149.489,520.217,151.28,518.426,153.489,518.426z"/>
<text transform="matrix(1 0 0 1 180.9741 528.4258)" font-family="'Helvetica'" font-size="10">Ex.:</text>
<text transform="matrix(1 0 0 1 155.3389 540.4258)"><tspan x="0" y="0" font-family="'Helvetica'" font-size="10" letter-spacing="2">•</tspan><tspan x="6.191" y="0" font-family="'Helvetica'" font-size="10">For en </tspan></text>
<text transform="matrix(1 0 0 1 161.689 552.4258)" font-family="'Helvetica'" font-size="10">matière de </text>
<text transform="matrix(1 0 0 1 161.689 564.4258)" font-family="'Helvetica'" font-size="10">divorce</text>
<text transform="matrix(1 0 0 1 161.2388 576.4258)" font-family="'Helvetica'" font-size="10">(59-60 LDIP)</text>
<path opacity="0.5" fill="#AC1480" d="M17.472,747.973h132.106c2.209,0,4,1.79,4,4v31.236c0,2.209-1.791,4-4,4H17.472
	c-2.209,0-4-1.791-4-4v-31.236C13.472,749.763,15.263,747.973,17.472,747.973z"/>
<text transform="matrix(1 0 0 1 22.1309 757.9717)" font-family="'Helvetica'" font-size="10">Ex. : OJN, GOG ZH, LJ FR, </text>
<text transform="matrix(1 0 0 1 22.6729 769.9717)" font-family="'Helvetica'" font-size="10">LOJ VD, LOJ VS, LOJ GE , </text>
<text transform="matrix(1 0 0 1 66.855 781.9717)" font-family="'Helvetica'" font-size="10">LOJ JU</text>
<path opacity="0.5" fill="#AC1480" d="M162.912,748.375h269.04c2.209,0,4,1.791,4,4v31.237c0,2.209-1.791,4-4,4h-269.04
	c-2.209,0-4-1.791-4-4v-31.237C158.912,750.166,160.702,748.375,162.912,748.375z"/>
<text transform="matrix(1 0 0 1 164.7612 758.375)"><tspan x="0" y="0" font-family="'Helvetica'" font-size="10" letter-spacing="2">•</tspan><tspan x="6.191" y="0" font-family="'Helvetica'" font-size="10">A</tspan><tspan x="12.861" y="0" font-family="'Helvetica'" font-size="10">f</tspan><tspan x="15.469" y="0" font-family="'Helvetica'" font-size="10">faires civiles relevant du droit privé cantonal  </tspan></text>
<text transform="matrix(1 0 0 1 164.7612 770.375)"><tspan x="0" y="0" font-family="'Helvetica'" font-size="10" letter-spacing="2">•</tspan><tspan x="6.191" y="0" font-family="'Helvetica'" font-size="10">Décisions non judiciaires de juridiction gracieuse (ex : </tspan></text>
<text transform="matrix(1 0 0 1 171.1113 782.375)" font-family="'Helvetica'" font-size="10">tenue de registres publics, actes authentiques)</text>
<polygon opacity="0.75" fill="#AC1480" points="282.037,498.625 271.037,514.036 260.037,498.625 "/>
<polygon opacity="0.75" fill="#AC1480" points="201.337,499.517 190.337,514.795 179.337,499.517 "/>
<polygon opacity="0.75" fill="#AC1480" points="153.312,167.495 142.312,182.773 131.312,167.495 "/>
<polygon opacity="0.75" fill="#AC1480" points="434.993,167.495 423.993,182.773 412.993,167.495 "/>
<polygon opacity="0.75" fill="#AC1480" points="336.135,729.825 325.135,745.104 314.135,729.825 "/>
<polygon opacity="0.75" fill="#AC1480" points="91.321,729.06 80.321,744.338 69.321,729.06 "/>
<path opacity="0.5" fill="#AC1480" d="M405.223,518.171h70.96c2.209,0,4,1.791,4,4v101.542c0,2.21-1.791,4-4,4h-70.96
	c-2.209,0-4-1.79-4-4V522.171C401.223,519.962,403.014,518.171,405.223,518.171z"/>
<text transform="matrix(1 0 0 1 407.0728 528.1709)"><tspan x="0" y="0" font-family="'Helvetica'" font-size="10" letter-spacing="2">•</tspan><tspan x="6.191" y="0" font-family="'Helvetica'" font-size="10">Actions (120 </tspan></text>
<text transform="matrix(1 0 0 1 413.4229 540.1709)"><tspan x="0" y="0" font-family="'Helvetica'" font-size="10">L</tspan><tspan x="4.832" y="0" font-family="'Helvetica'" font-size="10">TF)</tspan></text>
<text transform="matrix(1 0 0 1 407.0728 552.1709)"><tspan x="0" y="0" font-family="'Helvetica'" font-size="10" letter-spacing="2">•</tspan><tspan x="6.191" y="0" font-family="'Helvetica'" font-size="10">Recours en </tspan></text>
<text transform="matrix(1 0 0 1 413.4229 564.1709)" font-family="'Helvetica'" font-size="10">matière civile </text>
<text transform="matrix(1 0 0 1 413.4229 576.1709)"><tspan x="0" y="0" font-family="'Helvetica'" font-size="10">(72 ss </tspan><tspan x="30.01" y="0" font-family="'Helvetica'" font-size="10">L</tspan><tspan x="34.841" y="0" font-family="'Helvetica'" font-size="10">TF)</tspan></text>
<text transform="matrix(1 0 0 1 407.0728 588.1709)"><tspan x="0" y="0" font-family="'Helvetica'" font-size="10" letter-spacing="2">•</tspan><tspan x="6.191" y="0" font-family="'Helvetica'" font-size="10">Recours </tspan></text>
<text transform="matrix(1 0 0 1 413.4229 600.1709)" font-family="'Helvetica'" font-size="10">const. </text>
<text transform="matrix(1 0 0 1 413.4229 612.1709)" font-family="'Helvetica'" font-size="10">subsidiaire </text>
<text transform="matrix(1 0 0 1 413.4229 624.1709)"><tspan x="0" y="0" font-family="'Helvetica'" font-size="10">(</tspan><tspan x="3.33" y="0" font-family="'Helvetica'" font-size="10">1</tspan><tspan x="8.162" y="0" font-family="'Helvetica'" font-size="10">13 ss </tspan><tspan x="34.841" y="0" font-family="'Helvetica'" font-size="10">L</tspan><tspan x="39.673" y="0" font-family="'Helvetica'" font-size="10">TF)</tspan></text>
<polygon opacity="0.75" fill="#AC1480" points="453.774,500.01 442.774,515.287 431.774,500.01 "/>
<path fill="#AC1480" d="M318.448,412.129h75.105c2.209,0,4,1.791,4,4v7.126c0,2.209-1.791,4-4,4h-75.105c-2.209,0-4-1.791-4-4
	v-7.126C314.448,413.92,316.239,412.129,318.448,412.129z"/>
<text transform="matrix(1 0 0 1 342.96 423.2832)"><tspan x="0" y="0" fill="#FFFFFF" font-family="'Helvetica'" font-size="11">L</tspan><tspan x="5.314" y="0" fill="#FFFFFF" font-family="'Helvetica'" font-size="11">TFB</tspan></text>
<path opacity="0.75" fill="#AC1480" d="M317.218,448.268h75.105c2.209,0,4,1.79,4,4v39.618c0,2.21-1.791,4-4,4h-75.105
	c-2.21,0-4-1.79-4-4v-39.618C313.218,450.058,315.008,448.268,317.218,448.268z"/>
<text transform="matrix(1 0 0 1 321.5059 458.0762)"><tspan x="0" y="0" fill="#FFFFFF" font-family="'Helvetica'" font-size="10">A</tspan><tspan x="6.67" y="0" fill="#FFFFFF" font-family="'Helvetica'" font-size="10">f</tspan><tspan x="9.278" y="0" fill="#FFFFFF" font-family="'Helvetica'" font-size="10">faires devant </tspan></text>
<text transform="matrix(1 0 0 1 331.6963 470.0762)"><tspan x="0" y="0" fill="#FFFFFF" font-family="'Helvetica'" font-size="10">le</tspan><tspan x="7.783" y="0" fill="#FFFFFF" font-family="'Helvetica'" font-size="10"> </tspan><tspan x="10.392" y="0" fill="#FFFFFF" font-family="'Helvetica'" font-size="10">T</tspan><tspan x="16.14" y="0" fill="#FFFFFF" font-family="'Helvetica'" font-size="10">ribunal </tspan></text>
<text transform="matrix(1 0 0 1 330.0312 482.0762)" fill="#FFFFFF" font-family="'Helvetica'" font-size="10">fédéral des </text>
<text transform="matrix(1 0 0 1 338.3735 494.0762)" fill="#FFFFFF" font-family="'Helvetica'" font-size="10">brevets</text>
<polygon fill="#AC1480" points="360.911,347.319 349.911,362.597 338.911,347.319 "/>
<polygon fill="#AC1480" points="362.363,394.19 351.363,409.469 340.363,394.19 "/>
<polygon fill="#AC1480" points="361.589,430.283 350.589,445.562 339.589,430.283 "/>
<path opacity="0.5" fill="#AC1480" d="M316.155,518.598h77.159c2.209,0,4,1.791,4,4V623.67c0,2.209-1.791,4-4,4h-77.159
	c-2.21,0-4-1.791-4-4V522.598C312.155,520.389,313.945,518.598,316.155,518.598z"/>
<text transform="matrix(1 0 0 1 334.5396 528.5977)"><tspan x="0" y="0" font-family="'Helvetica'" font-size="10">26 </tspan><tspan x="13.901" y="0" font-family="'Helvetica'" font-size="10">L</tspan><tspan x="18.733" y="0" font-family="'Helvetica'" font-size="10">TFB:</tspan></text>
<text transform="matrix(1 0 0 1 318.0054 540.5977)"><tspan x="0" y="0" font-family="'Helvetica'" font-size="10" letter-spacing="2">•</tspan><tspan x="6.191" y="0" font-family="'Helvetica'" font-size="10">Actions en </tspan></text>
<text transform="matrix(1 0 0 1 324.355 552.5977)" font-family="'Helvetica'" font-size="10">validité d&apos;un </text>
<text transform="matrix(1 0 0 1 324.355 564.5977)" font-family="'Helvetica'" font-size="10">brevet</text>
<text transform="matrix(1 0 0 1 318.0054 576.5977)"><tspan x="0" y="0" font-family="'Helvetica'" font-size="10" letter-spacing="2">•</tspan><tspan x="6.191" y="0" font-family="'Helvetica'" font-size="10">Actions en </tspan></text>
<text transform="matrix(1 0 0 1 324.355 588.5977)" font-family="'Helvetica'" font-size="10">octroi d&apos;une </text>
<text transform="matrix(1 0 0 1 324.355 600.5977)" font-family="'Helvetica'" font-size="10">licence sur un </text>
<text transform="matrix(1 0 0 1 324.355 612.5977)" font-family="'Helvetica'" font-size="10">brevet</text>
<polygon opacity="0.75" fill="#AC1480" points="363.282,499.517 352.282,514.795 341.282,499.517 "/>
<path fill="#AC1480" d="M317.741,365.151h76.168c2.209,0,4,1.791,4,4v18.1c0,2.209-1.791,4-4,4h-76.168c-2.209,0-4-1.791-4-4v-18.1
	C313.741,366.942,315.532,365.151,317.741,365.151z"/>
<text transform="matrix(1 0 0 1 318.8291 375.3379)" fill="#FFFFFF" font-family="'Helvetica'" font-size="11">122 II - 191a III </text>
<text transform="matrix(1 0 0 1 346.0469 388.3379)" fill="#FFFFFF" font-family="'Helvetica'" font-size="11">Cst.</text>
<path fill="#FFFFFF" d="M27.422,494.952h104.83c2.209,0,4,1.791,4,4v75.794c0,2.209-1.791,4-4,4H27.422c-2.209,0-4-1.791-4-4
	v-75.794C23.422,496.743,25.213,494.952,27.422,494.952z"/>
<text transform="matrix(1 0 0 1 69.8345 504.8496)" font-family="'Helvetica'" font-size="10">Ex. :</text>
<text transform="matrix(1 0 0 1 28.4219 516.8496)" font-family="'Helvetica'" font-size="10">• Droit d&apos;être entendu</text>
<text transform="matrix(1 0 0 1 28.4219 528.8496)" font-family="'Helvetica'" font-size="10">• Jugement dans un </text>
<text transform="matrix(1 0 0 1 35.6221 540.8496)" font-family="'Helvetica'" font-size="10">délai raisonnable</text>
<text transform="matrix(1 0 0 1 28.4219 552.8496)"><tspan x="0" y="0" font-family="'Helvetica'" font-size="10">•</tspan><tspan x="3.501" y="0" font-family="'Helvetica'" font-size="10"> </tspan><tspan x="5.739" y="0" font-family="'Helvetica'" font-size="10">Assistance judiciaire</tspan></text>
<text transform="matrix(1 0 0 1 28.4219 564.8496)"><tspan x="0" y="0" font-family="'Helvetica'" font-size="10">•</tspan><tspan x="3.501" y="0" font-family="'Helvetica'" font-size="10"> </tspan><tspan x="6.109" y="0" font-family="'Helvetica'" font-size="10">T</tspan><tspan x="11.858" y="0" font-family="'Helvetica'" font-size="10">ribunal indépendant </tspan></text>
<text transform="matrix(1 0 0 1 35.6221 576.8496)" font-family="'Helvetica'" font-size="10">et impartial</text>
<polygon fill="#FFFFFF" points="80.462,485.034 72.823,494.518 65.185,485.034 "/>
<path fill="#AC1480" d="M489.825,412.129h64.454c2.209,0,4,1.791,4,4v7.126c0,2.209-1.791,4-4,4h-64.454c-2.209,0-4-1.791-4-4
	v-7.126C485.825,413.92,487.616,412.129,489.825,412.129z"/>
<text transform="matrix(1 0 0 1 514.1084 423.1318)" fill="#FFFFFF" font-family="'Helvetica'" font-size="11">CC</text>
<path opacity="0.75" fill="#AC1480" d="M487.607,448.268h68.814c2.21,0,4,1.79,4,4v39.487c0,2.209-1.79,4-4,4h-68.814
	c-2.209,0-4-1.791-4-4v-39.487C483.607,450.058,485.398,448.268,487.607,448.268z"/>
<text transform="matrix(1 0 0 1 492.5518 463.3926)" fill="#FFFFFF" font-family="'Helvetica'" font-size="10">Protection de </text>
<text transform="matrix(1 0 0 1 493.5381 475.3926)" fill="#FFFFFF" font-family="'Helvetica'" font-size="10">l&apos;enfant et de </text>
<text transform="matrix(1 0 0 1 506.3262 487.3926)" fill="#FFFFFF" font-family="'Helvetica'" font-size="10">l&apos;adulte</text>
<path fill="#AC1480" d="M489.846,365.151h65.199c2.21,0,4,1.791,4,4v18.1c0,2.209-1.79,4-4,4h-65.199c-2.209,0-4-1.791-4-4v-18.1
	C485.846,366.942,487.637,365.151,489.846,365.151z"/>
<text transform="matrix(1 0 0 1 501.9624 381.6387)" fill="#FFFFFF" font-family="'Helvetica'" font-size="11">122 Cst.</text>
<path opacity="0.5" fill="#AC1480" d="M487.607,518.641h69.727c2.209,0,4,1.791,4,4v101.072c0,2.21-1.791,4-4,4h-69.727
	c-2.209,0-4-1.79-4-4V522.641C483.607,520.432,485.398,518.641,487.607,518.641z"/>
<text transform="matrix(1 0 0 1 488.6069 528.6416)"><tspan x="0" y="0" font-family="'Helvetica'" font-size="10">•</tspan><tspan x="3.501" y="0" font-family="'Helvetica'" font-size="10"> </tspan><tspan x="5.739" y="0" font-family="'Helvetica'" font-size="10">Autorités, </tspan></text>
<text transform="matrix(1 0 0 1 495.8071 540.6416)" font-family="'Helvetica'" font-size="10">compétences </text>
<text transform="matrix(1 0 0 1 495.8071 552.6416)" font-family="'Helvetica'" font-size="10">(440 ss CC)</text>
<text transform="matrix(1 0 0 1 488.6069 564.6416)" font-family="'Helvetica'" font-size="10">• Règles </text>
<text transform="matrix(1 0 0 1 495.8071 576.6416)" font-family="'Helvetica'" font-size="10">générales de </text>
<text transform="matrix(1 0 0 1 495.8071 588.6416)" font-family="'Helvetica'" font-size="10">procédure </text>
<text transform="matrix(1 0 0 1 495.8071 600.6416)" font-family="'Helvetica'" font-size="10">(443 ss CC)</text>
<polygon fill="#AC1480" points="531.821,347.319 520.821,362.597 509.821,347.319 "/>
<polygon fill="#AC1480" points="532.708,394.19 521.708,409.469 510.708,394.19 "/>
<polygon fill="#AC1480" points="534.208,430.283 523.208,445.561 512.208,430.283 "/>
<polygon opacity="0.75" fill="#AC1480" points="534.208,498.297 523.208,513.574 512.208,498.297 "/>
<path opacity="0.75" fill="#AC1480" d="M445.923,696.121h110.3c2.209,0,4,1.791,4,4v83.491c0,2.209-1.791,4-4,4h-110.3
	c-2.209,0-4-1.791-4-4v-83.491C441.923,697.912,443.714,696.121,445.923,696.121z"/>
<text transform="matrix(1 0 0 1 450.0132 719.1211)" fill="#FFFFFF" font-family="'Helvetica'" font-size="11">Règles de procédure </text>
<text transform="matrix(1 0 0 1 466.9746 732.1211)" fill="#FFFFFF" font-family="'Helvetica'" font-size="11">cantonales en </text>
<text transform="matrix(1 0 0 1 449.5562 745.1211)" fill="#FFFFFF" font-family="'Helvetica'" font-size="11">matière de protection </text>
<text transform="matrix(1 0 0 1 462.2534 758.1211)" fill="#FFFFFF" font-family="'Helvetica'" font-size="11">de l&apos;enfant et de </text>
<text transform="matrix(1 0 0 1 449.1235 771.1211)" fill="#FFFFFF" font-family="'Helvetica'" font-size="11">l&apos;adulte (art. 450f CC)</text>
<path fill="#FFFFFF" d="M27.422,583.273h103.862c2.209,0,4,1.791,4,4V617c0,2.209-1.791,4-4,4H27.422c-2.209,0-4-1.791-4-4v-29.727
	C23.422,585.063,25.213,583.273,27.422,583.273z"/>
<text transform="matrix(1 0 0 1 35.5981 594.1357)" font-family="'Helvetica'" font-size="10">Droit d&apos;être jugé par </text>
<text transform="matrix(1 0 0 1 31.8237 606.1357)" font-family="'Helvetica'" font-size="10">une autorité judiciaire </text>
<text transform="matrix(1 0 0 1 48.7891 618.1357)" font-family="'Helvetica'" font-size="10">(art. 29a Cst.)</text>
<polygon fill="#AC1480" points="561.333,299.997 287.667,315.275 14,299.997 "/>
<polygon fill="#AC1480" points="559.333,631.887 285.667,647.165 12,631.887 "/>
<polygon fill="#AC1480" points="508.554,677.945 497.554,693.224 486.554,677.945 "/>
<polygon fill="#FFFFFF" points="14.42,398.24 23.189,404.265 14.42,410.289 "/>
<polygon fill="#FFFFFF" points="14.42,431.137 23.189,437.162 14.42,443.187 "/>
<polygon fill="#FFFFFF" points="14.42,462.665 23.189,468.69 14.42,474.715 "/>
<polygon fill="#FFFFFF" points="13.546,583.656 22.315,589.682 13.546,595.706 "/>
</svg>
